<svg xmlns="http://www.w3.org/2000/svg" viewBox="0 0 192 192" width="192" height="192">
  <rect width="192" height="192" rx="32" fill="#1a0b3d"/>
  <rect x="8" y="8" width="176" height="176" rx="26" fill="none" stroke="#ffd700" stroke-width="4" opacity="0.7"/>
  <!-- neon glow rings -->
  <circle cx="96" cy="96" r="70" fill="none" stroke="#ff00aa" stroke-width="2" opacity="0.4"/>
  <circle cx="96" cy="96" r="60" fill="none" stroke="#00ffff" stroke-width="1.5" opacity="0.3"/>
  <!-- Running figure silhouette -->
  <!-- Body -->
  <rect x="78" y="90" width="26" height="36" rx="6" fill="#ffd700"/>
  <!-- Head -->
  <circle cx="91" cy="78" r="16" fill="#ffd700"/>
  <!-- Eye -->
  <circle cx="97" cy="75" r="4" fill="#1a0b3d"/>
  <circle cx="99" cy="73" r="1.5" fill="white"/>
  <!-- Legs running -->
  <rect x="76" y="124" width="10" height="26" rx="5" fill="#ff00aa" transform="rotate(-20 81 124)"/>
  <rect x="90" y="124" width="10" height="26" rx="5" fill="#ff00aa" transform="rotate(15 95 124)"/>
  <!-- Arms -->
  <rect x="62" y="92" width="10" height="22" rx="5" fill="#ffd700" transform="rotate(30 67 92)"/>
  <rect x="102" y="88" width="10" height="22" rx="5" fill="#ffd700" transform="rotate(-25 107 88)"/>
  <!-- Jeans label -->
  <text x="96" y="172" font-family="Arial Black, sans-serif" font-size="16" font-weight="900" fill="#00ffff" text-anchor="middle" letter-spacing="1">BAGGY</text>
</svg>
