<svg xmlns="http://www.w3.org/2000/svg" viewBox="0 0 512 512" width="512" height="512">
  <rect width="512" height="512" rx="80" fill="#1a0b3d"/>
  <rect x="16" y="16" width="480" height="480" rx="70" fill="none" stroke="#ffd700" stroke-width="8" opacity="0.7"/>
  <!-- neon glow rings -->
  <circle cx="256" cy="256" r="190" fill="none" stroke="#ff00aa" stroke-width="4" opacity="0.4"/>
  <circle cx="256" cy="256" r="165" fill="none" stroke="#00ffff" stroke-width="3" opacity="0.3"/>
  <!-- Running figure silhouette -->
  <rect x="210" y="240" width="68" height="96" rx="16" fill="#ffd700"/>
  <circle cx="244" cy="210" r="44" fill="#ffd700"/>
  <circle cx="260" cy="200" r="11" fill="#1a0b3d"/>
  <circle cx="265" cy="195" r="4" fill="white"/>
  <rect x="204" y="334" width="26" height="68" rx="13" fill="#ff00aa" transform="rotate(-20 217 334)"/>
  <rect x="240" y="334" width="26" height="68" rx="13" fill="#ff00aa" transform="rotate(15 253 334)"/>
  <rect x="164" y="244" width="26" height="58" rx="13" fill="#ffd700" transform="rotate(30 177 244)"/>
  <rect x="272" y="236" width="26" height="58" rx="13" fill="#ffd700" transform="rotate(-25 285 236)"/>
  <!-- Title text -->
  <text x="256" y="460" font-family="Arial Black, sans-serif" font-size="40" font-weight="900" fill="#ffd700" text-anchor="middle" letter-spacing="3">BAGGY AMAR</text>
  <text x="256" y="496" font-family="Arial Black, sans-serif" font-size="24" font-weight="900" fill="#00ffff" text-anchor="middle" letter-spacing="2">3 DA</text>
</svg>
